<?xml version="1.0" encoding="UTF-8" standalone="no"?>
<!DOCTYPE svg PUBLIC "-//W3C//DTD SVG 1.1//EN"
 "http://www.w3.org/Graphics/SVG/1.1/DTD/svg11.dtd">
<!-- Generated by graphviz version 3.0.0 (0)
 -->
<!-- Pages: 1 -->
<svg width="1333pt" height="334pt"
 viewBox="0.00 0.00 1333.00 334.00" xmlns="http://www.w3.org/2000/svg" xmlns:xlink="http://www.w3.org/1999/xlink">
<g id="graph0" class="graph" transform="scale(1 1) rotate(0) translate(4 330)">
<polygon fill="white" stroke="transparent" points="-4,4 -4,-330 1329,-330 1329,4 -4,4"/>
<!-- AWS -->
<g id="node1" class="node">
<title>AWS</title>
<polygon fill="lightgrey" stroke="black" points="156.5,-326 102.5,-326 102.5,-290 156.5,-290 156.5,-326"/>
<text text-anchor="middle" x="129.5" y="-304.3" font-family="Times,serif" font-size="14.00">AWS</text>
</g>
<!-- S3 -->
<g id="node2" class="node">
<title>S3</title>
<polygon fill="lightgrey" stroke="black" points="119.5,-254 65.5,-254 65.5,-218 119.5,-218 119.5,-254"/>
<text text-anchor="middle" x="92.5" y="-232.3" font-family="Times,serif" font-size="14.00">S3</text>
</g>
<!-- AWS&#45;&gt;S3 -->
<g id="edge1" class="edge">
<title>AWS&#45;&gt;S3</title>
<path fill="none" stroke="black" d="M120.35,-289.7C116.1,-281.64 110.94,-271.89 106.23,-262.98"/>
<polygon fill="black" stroke="black" points="109.31,-261.31 101.54,-254.1 103.12,-264.58 109.31,-261.31"/>
</g>
<!-- Fargate -->
<g id="node4" class="node">
<title>Fargate</title>
<polygon fill="lightgrey" stroke="black" points="195,-254 138,-254 138,-218 195,-218 195,-254"/>
<text text-anchor="middle" x="166.5" y="-232.3" font-family="Times,serif" font-size="14.00">Fargate</text>
</g>
<!-- AWS&#45;&gt;Fargate -->
<g id="edge3" class="edge">
<title>AWS&#45;&gt;Fargate</title>
<path fill="none" stroke="black" d="M138.65,-289.7C142.9,-281.64 148.06,-271.89 152.77,-262.98"/>
<polygon fill="black" stroke="black" points="155.88,-264.58 157.46,-254.1 149.69,-261.31 155.88,-264.58"/>
</g>
<!-- gzip prod client assets -->
<g id="node3" class="node">
<title>gzip prod client assets</title>
<polygon fill="lightgrey" stroke="black" points="161,-181 24,-181 24,-145 161,-145 161,-181"/>
<text text-anchor="middle" x="92.5" y="-159.3" font-family="Times,serif" font-size="14.00">gzip prod client assets</text>
</g>
<!-- S3&#45;&gt;gzip prod client assets -->
<g id="edge2" class="edge">
<title>S3&#45;&gt;gzip prod client assets</title>
<path fill="none" stroke="black" d="M92.5,-217.81C92.5,-209.79 92.5,-200.05 92.5,-191.07"/>
<polygon fill="black" stroke="black" points="96,-191.03 92.5,-181.03 89,-191.03 96,-191.03"/>
</g>
<!-- vite&#45;plugin&#45;compression (gzip) -->
<g id="node8" class="node">
<title>vite&#45;plugin&#45;compression (gzip)</title>
<g id="a_node8"><a xlink:href="http://github.com/vbenjs/vite-plugin-compression" xlink:title="vite&#45;plugin&#45;compression (gzip)">
<polygon fill="lightgrey" stroke="black" points="185,-108 0,-108 0,-72 185,-72 185,-108"/>
<text text-anchor="middle" x="92.5" y="-86.3" font-family="Times,serif" font-size="14.00">vite&#45;plugin&#45;compression (gzip)</text>
</a>
</g>
</g>
<!-- gzip prod client assets&#45;&gt;vite&#45;plugin&#45;compression (gzip) -->
<g id="edge7" class="edge">
<title>gzip prod client assets&#45;&gt;vite&#45;plugin&#45;compression (gzip)</title>
<path fill="none" stroke="black" d="M92.5,-144.81C92.5,-136.79 92.5,-127.05 92.5,-118.07"/>
<polygon fill="black" stroke="black" points="96,-118.03 92.5,-108.03 89,-118.03 96,-118.03"/>
</g>
<!-- JS -->
<g id="node5" class="node">
<title>JS</title>
<polygon fill="lightgrey" stroke="black" points="435.5,-326 381.5,-326 381.5,-290 435.5,-290 435.5,-326"/>
<text text-anchor="middle" x="408.5" y="-304.3" font-family="Times,serif" font-size="14.00">JS</text>
</g>
<!-- JS Tooling -->
<g id="node6" class="node">
<title>JS Tooling</title>
<polygon fill="lightgrey" stroke="black" points="445.5,-254 371.5,-254 371.5,-218 445.5,-218 445.5,-254"/>
<text text-anchor="middle" x="408.5" y="-232.3" font-family="Times,serif" font-size="14.00">JS Tooling</text>
</g>
<!-- JS&#45;&gt;JS Tooling -->
<g id="edge4" class="edge">
<title>JS&#45;&gt;JS Tooling</title>
<path fill="none" stroke="black" d="M408.5,-289.7C408.5,-281.98 408.5,-272.71 408.5,-264.11"/>
<polygon fill="black" stroke="black" points="412,-264.1 408.5,-254.1 405,-264.1 412,-264.1"/>
</g>
<!-- Vite -->
<g id="node7" class="node">
<title>Vite</title>
<polygon fill="lightgrey" stroke="black" points="435.5,-181 381.5,-181 381.5,-145 435.5,-145 435.5,-181"/>
<text text-anchor="middle" x="408.5" y="-159.3" font-family="Times,serif" font-size="14.00">Vite</text>
</g>
<!-- JS Tooling&#45;&gt;Vite -->
<g id="edge5" class="edge">
<title>JS Tooling&#45;&gt;Vite</title>
<path fill="none" stroke="black" d="M408.5,-217.81C408.5,-209.79 408.5,-200.05 408.5,-191.07"/>
<polygon fill="black" stroke="black" points="412,-191.03 408.5,-181.03 405,-191.03 412,-191.03"/>
</g>
<!-- Vite&#45;&gt;vite&#45;plugin&#45;compression (gzip) -->
<g id="edge6" class="edge">
<title>Vite&#45;&gt;vite&#45;plugin&#45;compression (gzip)</title>
<path fill="none" stroke="black" d="M381.28,-155.89C336.62,-145.85 245.96,-125.48 178.07,-110.23"/>
<polygon fill="black" stroke="black" points="178.75,-106.79 168.23,-108.01 177.22,-113.62 178.75,-106.79"/>
</g>
<!-- Experiment with creating vite plugin -->
<g id="node9" class="node">
<title>Experiment with creating vite plugin</title>
<polygon fill="lightgrey" stroke="black" points="421.5,-108 203.5,-108 203.5,-72 421.5,-72 421.5,-108"/>
<text text-anchor="middle" x="312.5" y="-86.3" font-family="Times,serif" font-size="14.00">Experiment with creating vite plugin</text>
</g>
<!-- Vite&#45;&gt;Experiment with creating vite plugin -->
<g id="edge8" class="edge">
<title>Vite&#45;&gt;Experiment with creating vite plugin</title>
<path fill="none" stroke="black" d="M385.26,-144.81C372.76,-135.57 357.18,-124.04 343.64,-114.03"/>
<polygon fill="black" stroke="black" points="345.65,-111.16 335.52,-108.03 341.48,-116.79 345.65,-111.16"/>
</g>
<!-- Rollup code splitting -->
<g id="node10" class="node">
<title>Rollup code splitting</title>
<polygon fill="lightgrey" stroke="black" points="571,-108 440,-108 440,-72 571,-72 571,-108"/>
<text text-anchor="middle" x="505.5" y="-86.3" font-family="Times,serif" font-size="14.00">Rollup code splitting</text>
</g>
<!-- Vite&#45;&gt;Rollup code splitting -->
<g id="edge9" class="edge">
<title>Vite&#45;&gt;Rollup code splitting</title>
<path fill="none" stroke="black" d="M431.98,-144.81C444.61,-135.57 460.36,-124.04 474.03,-114.03"/>
<polygon fill="black" stroke="black" points="476.23,-116.76 482.24,-108.03 472.1,-111.11 476.23,-116.76"/>
</g>
<!-- Dynamic imports -->
<g id="node11" class="node">
<title>Dynamic imports</title>
<polygon fill="lightgrey" stroke="black" points="702,-108 589,-108 589,-72 702,-72 702,-108"/>
<text text-anchor="middle" x="645.5" y="-86.3" font-family="Times,serif" font-size="14.00">Dynamic imports</text>
</g>
<!-- Vite&#45;&gt;Dynamic imports -->
<g id="edge10" class="edge">
<title>Vite&#45;&gt;Dynamic imports</title>
<path fill="none" stroke="black" d="M435.69,-153.86C470.38,-143.46 531.57,-125.13 578.95,-110.94"/>
<polygon fill="black" stroke="black" points="579.96,-114.29 588.53,-108.07 577.95,-107.58 579.96,-114.29"/>
</g>
<!-- rollup has better performance when the individual chunks aren&#39;t too big -->
<g id="node12" class="node">
<title>rollup has better performance when the individual chunks aren&#39;t too big</title>
<polygon fill="lightgrey" stroke="black" points="709,-36 302,-36 302,0 709,0 709,-36"/>
<text text-anchor="middle" x="505.5" y="-14.3" font-family="Times,serif" font-size="14.00">rollup has better performance when the individual chunks aren&#39;t too big</text>
</g>
<!-- Rollup code splitting&#45;&gt;rollup has better performance when the individual chunks aren&#39;t too big -->
<g id="edge11" class="edge">
<title>Rollup code splitting&#45;&gt;rollup has better performance when the individual chunks aren&#39;t too big</title>
<path fill="none" stroke="black" d="M505.5,-71.7C505.5,-63.98 505.5,-54.71 505.5,-46.11"/>
<polygon fill="black" stroke="black" points="509,-46.1 505.5,-36.1 502,-46.1 509,-46.1"/>
</g>
<!-- Turborepo -->
<g id="node13" class="node">
<title>Turborepo</title>
<polygon fill="lightgrey" stroke="black" points="643.5,-326 569.5,-326 569.5,-290 643.5,-290 643.5,-326"/>
<text text-anchor="middle" x="606.5" y="-304.3" font-family="Times,serif" font-size="14.00">Turborepo</text>
</g>
<!-- Task definition -->
<g id="node14" class="node">
<title>Task definition</title>
<polygon fill="lightgrey" stroke="black" points="561.5,-254 463.5,-254 463.5,-218 561.5,-218 561.5,-254"/>
<text text-anchor="middle" x="512.5" y="-232.3" font-family="Times,serif" font-size="14.00">Task definition</text>
</g>
<!-- Turborepo&#45;&gt;Task definition -->
<g id="edge12" class="edge">
<title>Turborepo&#45;&gt;Task definition</title>
<path fill="none" stroke="black" d="M583.26,-289.7C571.31,-280.8 556.58,-269.82 543.65,-260.2"/>
<polygon fill="black" stroke="black" points="545.58,-257.27 535.47,-254.1 541.4,-262.88 545.58,-257.27"/>
</g>
<!-- Cache -->
<g id="node15" class="node">
<title>Cache</title>
<polygon fill="lightgrey" stroke="black" points="633.5,-254 579.5,-254 579.5,-218 633.5,-218 633.5,-254"/>
<text text-anchor="middle" x="606.5" y="-232.3" font-family="Times,serif" font-size="14.00">Cache</text>
</g>
<!-- Turborepo&#45;&gt;Cache -->
<g id="edge13" class="edge">
<title>Turborepo&#45;&gt;Cache</title>
<path fill="none" stroke="black" d="M606.5,-289.7C606.5,-281.98 606.5,-272.71 606.5,-264.11"/>
<polygon fill="black" stroke="black" points="610,-264.1 606.5,-254.1 603,-264.1 610,-264.1"/>
</g>
<!-- Linting turboconfig -->
<g id="node16" class="node">
<title>Linting turboconfig</title>
<polygon fill="lightgrey" stroke="black" points="775,-254 652,-254 652,-218 775,-218 775,-254"/>
<text text-anchor="middle" x="713.5" y="-232.3" font-family="Times,serif" font-size="14.00">Linting turboconfig</text>
</g>
<!-- Turborepo&#45;&gt;Linting turboconfig -->
<g id="edge14" class="edge">
<title>Turborepo&#45;&gt;Linting turboconfig</title>
<path fill="none" stroke="black" d="M632.68,-289.88C646.54,-280.81 663.74,-269.55 678.71,-259.76"/>
<polygon fill="black" stroke="black" points="680.77,-262.59 687.22,-254.19 676.94,-256.74 680.77,-262.59"/>
</g>
<!-- Typescript -->
<g id="node17" class="node">
<title>Typescript</title>
<polygon fill="lightgrey" stroke="black" points="936.5,-326 862.5,-326 862.5,-290 936.5,-290 936.5,-326"/>
<text text-anchor="middle" x="899.5" y="-304.3" font-family="Times,serif" font-size="14.00">Typescript</text>
</g>
<!-- &#45;&#45;increment -->
<g id="node18" class="node">
<title>&#45;&#45;increment</title>
<polygon fill="lightgrey" stroke="black" points="873.5,-254 793.5,-254 793.5,-218 873.5,-218 873.5,-254"/>
<text text-anchor="middle" x="833.5" y="-232.3" font-family="Times,serif" font-size="14.00">&#45;&#45;increment</text>
</g>
<!-- Typescript&#45;&gt;&#45;&#45;increment -->
<g id="edge15" class="edge">
<title>Typescript&#45;&gt;&#45;&#45;increment</title>
<path fill="none" stroke="black" d="M883.19,-289.7C875.19,-281.22 865.43,-270.86 856.68,-261.58"/>
<polygon fill="black" stroke="black" points="859.03,-258.98 849.63,-254.1 853.94,-263.78 859.03,-258.98"/>
</g>
<!-- incremental builds in CI -->
<g id="node19" class="node">
<title>incremental builds in CI</title>
<polygon fill="lightgrey" stroke="black" points="1041,-254 892,-254 892,-218 1041,-218 1041,-254"/>
<text text-anchor="middle" x="966.5" y="-232.3" font-family="Times,serif" font-size="14.00">incremental builds in CI</text>
</g>
<!-- Typescript&#45;&gt;incremental builds in CI -->
<g id="edge16" class="edge">
<title>Typescript&#45;&gt;incremental builds in CI</title>
<path fill="none" stroke="black" d="M916.06,-289.7C924.18,-281.22 934.09,-270.86 942.97,-261.58"/>
<polygon fill="black" stroke="black" points="945.74,-263.75 950.13,-254.1 940.69,-258.91 945.74,-263.75"/>
</g>
<!-- caching tsbuildinfo is tricky,\nparallel build/typechecking is a simpler option -->
<g id="node20" class="node">
<title>caching tsbuildinfo is tricky,\nparallel build/typechecking is a simpler option</title>
<polygon fill="lightgrey" stroke="black" points="1101.5,-182 831.5,-182 831.5,-144 1101.5,-144 1101.5,-182"/>
<text text-anchor="middle" x="966.5" y="-166.8" font-family="Times,serif" font-size="14.00">caching tsbuildinfo is tricky,</text>
<text text-anchor="middle" x="966.5" y="-151.8" font-family="Times,serif" font-size="14.00">parallel build/typechecking is a simpler option</text>
</g>
<!-- incremental builds in CI&#45;&gt;caching tsbuildinfo is tricky,\nparallel build/typechecking is a simpler option -->
<g id="edge17" class="edge">
<title>incremental builds in CI&#45;&gt;caching tsbuildinfo is tricky,\nparallel build/typechecking is a simpler option</title>
<path fill="none" stroke="black" d="M966.5,-217.81C966.5,-210.11 966.5,-200.82 966.5,-192.15"/>
<polygon fill="black" stroke="black" points="970,-192.02 966.5,-182.02 963,-192.02 970,-192.02"/>
</g>
<!-- Blog -->
<g id="node21" class="node">
<title>Blog</title>
<polygon fill="lightgrey" stroke="black" points="1209.5,-326 1155.5,-326 1155.5,-290 1209.5,-290 1209.5,-326"/>
<text text-anchor="middle" x="1182.5" y="-304.3" font-family="Times,serif" font-size="14.00">Blog</text>
</g>
<!-- OOP is a meme -->
<g id="node22" class="node">
<title>OOP is a meme</title>
<polygon fill="lightgrey" stroke="black" points="1163.5,-254 1059.5,-254 1059.5,-218 1163.5,-218 1163.5,-254"/>
<text text-anchor="middle" x="1111.5" y="-232.3" font-family="Times,serif" font-size="14.00">OOP is a meme</text>
</g>
<!-- Blog&#45;&gt;OOP is a meme -->
<g id="edge18" class="edge">
<title>Blog&#45;&gt;OOP is a meme</title>
<path fill="none" stroke="black" d="M1164.95,-289.7C1156.27,-281.14 1145.64,-270.66 1136.15,-261.3"/>
<polygon fill="black" stroke="black" points="1138.43,-258.63 1128.85,-254.1 1133.51,-263.62 1138.43,-258.63"/>
</g>
<!-- Don&#39;t throw exceptions -->
<g id="node23" class="node">
<title>Don&#39;t throw exceptions</title>
<polygon fill="lightgrey" stroke="black" points="1325,-254 1182,-254 1182,-218 1325,-218 1325,-254"/>
<text text-anchor="middle" x="1253.5" y="-232.3" font-family="Times,serif" font-size="14.00">Don&#39;t throw exceptions</text>
</g>
<!-- Blog&#45;&gt;Don&#39;t throw exceptions -->
<g id="edge19" class="edge">
<title>Blog&#45;&gt;Don&#39;t throw exceptions</title>
<path fill="none" stroke="black" d="M1200.05,-289.7C1208.73,-281.14 1219.36,-270.66 1228.85,-261.3"/>
<polygon fill="black" stroke="black" points="1231.49,-263.62 1236.15,-254.1 1226.57,-258.63 1231.49,-263.62"/>
</g>
</g>
</svg>
