<?xml version="1.0" encoding="UTF-8" standalone="no"?>
<!DOCTYPE svg PUBLIC "-//W3C//DTD SVG 1.1//EN"
 "http://www.w3.org/Graphics/SVG/1.1/DTD/svg11.dtd">
<!-- Generated by graphviz version 3.0.0 (0)
 -->
<!-- Pages: 1 -->
<svg width="907pt" height="260pt"
 viewBox="0.00 0.00 907.00 260.00" xmlns="http://www.w3.org/2000/svg" xmlns:xlink="http://www.w3.org/1999/xlink">
<g id="graph0" class="graph" transform="scale(1 1) rotate(0) translate(4 256)">
<polygon fill="white" stroke="transparent" points="-4,4 -4,-256 903,-256 903,4 -4,4"/>
<!-- AWS -->
<g id="node1" class="node">
<title>AWS</title>
<polygon fill="lightgrey" stroke="black" points="156.5,-252 102.5,-252 102.5,-216 156.5,-216 156.5,-252"/>
<text text-anchor="middle" x="129.5" y="-230.3" font-family="Times,serif" font-size="14.00">AWS</text>
</g>
<!-- S3 -->
<g id="node2" class="node">
<title>S3</title>
<polygon fill="lightgrey" stroke="black" points="119.5,-180 65.5,-180 65.5,-144 119.5,-144 119.5,-180"/>
<text text-anchor="middle" x="92.5" y="-158.3" font-family="Times,serif" font-size="14.00">S3</text>
</g>
<!-- AWS&#45;&gt;S3 -->
<g id="edge1" class="edge">
<title>AWS&#45;&gt;S3</title>
<path fill="none" stroke="black" d="M120.35,-215.7C116.1,-207.64 110.94,-197.89 106.23,-188.98"/>
<polygon fill="black" stroke="black" points="109.31,-187.31 101.54,-180.1 103.12,-190.58 109.31,-187.31"/>
</g>
<!-- Fargate -->
<g id="node4" class="node">
<title>Fargate</title>
<polygon fill="lightgrey" stroke="black" points="195,-180 138,-180 138,-144 195,-144 195,-180"/>
<text text-anchor="middle" x="166.5" y="-158.3" font-family="Times,serif" font-size="14.00">Fargate</text>
</g>
<!-- AWS&#45;&gt;Fargate -->
<g id="edge3" class="edge">
<title>AWS&#45;&gt;Fargate</title>
<path fill="none" stroke="black" d="M138.65,-215.7C142.9,-207.64 148.06,-197.89 152.77,-188.98"/>
<polygon fill="black" stroke="black" points="155.88,-190.58 157.46,-180.1 149.69,-187.31 155.88,-190.58"/>
</g>
<!-- gzip prod client assets -->
<g id="node3" class="node">
<title>gzip prod client assets</title>
<polygon fill="lightgrey" stroke="black" points="161,-108 24,-108 24,-72 161,-72 161,-108"/>
<text text-anchor="middle" x="92.5" y="-86.3" font-family="Times,serif" font-size="14.00">gzip prod client assets</text>
</g>
<!-- S3&#45;&gt;gzip prod client assets -->
<g id="edge2" class="edge">
<title>S3&#45;&gt;gzip prod client assets</title>
<path fill="none" stroke="black" d="M92.5,-143.7C92.5,-135.98 92.5,-126.71 92.5,-118.11"/>
<polygon fill="black" stroke="black" points="96,-118.1 92.5,-108.1 89,-118.1 96,-118.1"/>
</g>
<!-- vite&#45;plugin&#45;compression (gzip) -->
<g id="node8" class="node">
<title>vite&#45;plugin&#45;compression (gzip)</title>
<g id="a_node8"><a xlink:href="http://github.com/vbenjs/vite-plugin-compression" xlink:title="vite&#45;plugin&#45;compression (gzip)">
<polygon fill="lightgrey" stroke="black" points="185,-36 0,-36 0,0 185,0 185,-36"/>
<text text-anchor="middle" x="92.5" y="-14.3" font-family="Times,serif" font-size="14.00">vite&#45;plugin&#45;compression (gzip)</text>
</a>
</g>
</g>
<!-- gzip prod client assets&#45;&gt;vite&#45;plugin&#45;compression (gzip) -->
<g id="edge7" class="edge">
<title>gzip prod client assets&#45;&gt;vite&#45;plugin&#45;compression (gzip)</title>
<path fill="none" stroke="black" d="M92.5,-71.7C92.5,-63.98 92.5,-54.71 92.5,-46.11"/>
<polygon fill="black" stroke="black" points="96,-46.1 92.5,-36.1 89,-46.1 96,-46.1"/>
</g>
<!-- JS -->
<g id="node5" class="node">
<title>JS</title>
<polygon fill="lightgrey" stroke="black" points="435.5,-252 381.5,-252 381.5,-216 435.5,-216 435.5,-252"/>
<text text-anchor="middle" x="408.5" y="-230.3" font-family="Times,serif" font-size="14.00">JS</text>
</g>
<!-- JS Tooling -->
<g id="node6" class="node">
<title>JS Tooling</title>
<polygon fill="lightgrey" stroke="black" points="445.5,-180 371.5,-180 371.5,-144 445.5,-144 445.5,-180"/>
<text text-anchor="middle" x="408.5" y="-158.3" font-family="Times,serif" font-size="14.00">JS Tooling</text>
</g>
<!-- JS&#45;&gt;JS Tooling -->
<g id="edge4" class="edge">
<title>JS&#45;&gt;JS Tooling</title>
<path fill="none" stroke="black" d="M408.5,-215.7C408.5,-207.98 408.5,-198.71 408.5,-190.11"/>
<polygon fill="black" stroke="black" points="412,-190.1 408.5,-180.1 405,-190.1 412,-190.1"/>
</g>
<!-- Vite -->
<g id="node7" class="node">
<title>Vite</title>
<polygon fill="lightgrey" stroke="black" points="435.5,-108 381.5,-108 381.5,-72 435.5,-72 435.5,-108"/>
<text text-anchor="middle" x="408.5" y="-86.3" font-family="Times,serif" font-size="14.00">Vite</text>
</g>
<!-- JS Tooling&#45;&gt;Vite -->
<g id="edge5" class="edge">
<title>JS Tooling&#45;&gt;Vite</title>
<path fill="none" stroke="black" d="M408.5,-143.7C408.5,-135.98 408.5,-126.71 408.5,-118.11"/>
<polygon fill="black" stroke="black" points="412,-118.1 408.5,-108.1 405,-118.1 412,-118.1"/>
</g>
<!-- Vite&#45;&gt;vite&#45;plugin&#45;compression (gzip) -->
<g id="edge6" class="edge">
<title>Vite&#45;&gt;vite&#45;plugin&#45;compression (gzip)</title>
<path fill="none" stroke="black" d="M381.28,-82.97C336.91,-73.14 247.12,-53.25 179.38,-38.24"/>
<polygon fill="black" stroke="black" points="180.07,-34.81 169.55,-36.07 178.56,-41.65 180.07,-34.81"/>
</g>
<!-- Experiment with creating vite plugin -->
<g id="node9" class="node">
<title>Experiment with creating vite plugin</title>
<polygon fill="lightgrey" stroke="black" points="421.5,-36 203.5,-36 203.5,0 421.5,0 421.5,-36"/>
<text text-anchor="middle" x="312.5" y="-14.3" font-family="Times,serif" font-size="14.00">Experiment with creating vite plugin</text>
</g>
<!-- Vite&#45;&gt;Experiment with creating vite plugin -->
<g id="edge8" class="edge">
<title>Vite&#45;&gt;Experiment with creating vite plugin</title>
<path fill="none" stroke="black" d="M384.77,-71.7C372.56,-62.8 357.51,-51.82 344.32,-42.2"/>
<polygon fill="black" stroke="black" points="346.1,-39.17 335.96,-36.1 341.98,-44.82 346.1,-39.17"/>
</g>
<!-- Rollup code splitting -->
<g id="node10" class="node">
<title>Rollup code splitting</title>
<polygon fill="lightgrey" stroke="black" points="571,-36 440,-36 440,0 571,0 571,-36"/>
<text text-anchor="middle" x="505.5" y="-14.3" font-family="Times,serif" font-size="14.00">Rollup code splitting</text>
</g>
<!-- Vite&#45;&gt;Rollup code splitting -->
<g id="edge9" class="edge">
<title>Vite&#45;&gt;Rollup code splitting</title>
<path fill="none" stroke="black" d="M432.48,-71.7C444.81,-62.8 460.02,-51.82 473.35,-42.2"/>
<polygon fill="black" stroke="black" points="475.74,-44.79 481.8,-36.1 471.64,-39.12 475.74,-44.79"/>
</g>
<!-- Dynamic imports -->
<g id="node11" class="node">
<title>Dynamic imports</title>
<polygon fill="lightgrey" stroke="black" points="702,-36 589,-36 589,0 702,0 702,-36"/>
<text text-anchor="middle" x="645.5" y="-14.3" font-family="Times,serif" font-size="14.00">Dynamic imports</text>
</g>
<!-- Vite&#45;&gt;Dynamic imports -->
<g id="edge10" class="edge">
<title>Vite&#45;&gt;Dynamic imports</title>
<path fill="none" stroke="black" d="M435.69,-80.97C470.31,-70.74 531.32,-52.73 578.65,-38.74"/>
<polygon fill="black" stroke="black" points="579.93,-42.02 588.53,-35.83 577.95,-35.3 579.93,-42.02"/>
</g>
<!-- Turborepo -->
<g id="node12" class="node">
<title>Turborepo</title>
<polygon fill="lightgrey" stroke="black" points="592.5,-252 518.5,-252 518.5,-216 592.5,-216 592.5,-252"/>
<text text-anchor="middle" x="555.5" y="-230.3" font-family="Times,serif" font-size="14.00">Turborepo</text>
</g>
<!-- Task definition -->
<g id="node13" class="node">
<title>Task definition</title>
<polygon fill="lightgrey" stroke="black" points="561.5,-180 463.5,-180 463.5,-144 561.5,-144 561.5,-180"/>
<text text-anchor="middle" x="512.5" y="-158.3" font-family="Times,serif" font-size="14.00">Task definition</text>
</g>
<!-- Turborepo&#45;&gt;Task definition -->
<g id="edge11" class="edge">
<title>Turborepo&#45;&gt;Task definition</title>
<path fill="none" stroke="black" d="M544.87,-215.7C539.87,-207.56 533.81,-197.69 528.29,-188.7"/>
<polygon fill="black" stroke="black" points="531.22,-186.79 523.01,-180.1 525.26,-190.46 531.22,-186.79"/>
</g>
<!-- Cache -->
<g id="node14" class="node">
<title>Cache</title>
<polygon fill="lightgrey" stroke="black" points="633.5,-180 579.5,-180 579.5,-144 633.5,-144 633.5,-180"/>
<text text-anchor="middle" x="606.5" y="-158.3" font-family="Times,serif" font-size="14.00">Cache</text>
</g>
<!-- Turborepo&#45;&gt;Cache -->
<g id="edge12" class="edge">
<title>Turborepo&#45;&gt;Cache</title>
<path fill="none" stroke="black" d="M568.11,-215.7C574.1,-207.47 581.38,-197.48 587.98,-188.42"/>
<polygon fill="black" stroke="black" points="590.98,-190.25 594.04,-180.1 585.32,-186.13 590.98,-190.25"/>
</g>
<!-- Typescript -->
<g id="node15" class="node">
<title>Typescript</title>
<polygon fill="lightgrey" stroke="black" points="794.5,-252 720.5,-252 720.5,-216 794.5,-216 794.5,-252"/>
<text text-anchor="middle" x="757.5" y="-230.3" font-family="Times,serif" font-size="14.00">Typescript</text>
</g>
<!-- &#45;&#45;increment -->
<g id="node16" class="node">
<title>&#45;&#45;increment</title>
<polygon fill="lightgrey" stroke="black" points="731.5,-180 651.5,-180 651.5,-144 731.5,-144 731.5,-180"/>
<text text-anchor="middle" x="691.5" y="-158.3" font-family="Times,serif" font-size="14.00">&#45;&#45;increment</text>
</g>
<!-- Typescript&#45;&gt;&#45;&#45;increment -->
<g id="edge13" class="edge">
<title>Typescript&#45;&gt;&#45;&#45;increment</title>
<path fill="none" stroke="black" d="M741.19,-215.7C733.19,-207.22 723.43,-196.86 714.68,-187.58"/>
<polygon fill="black" stroke="black" points="717.03,-184.98 707.63,-180.1 711.94,-189.78 717.03,-184.98"/>
</g>
<!-- incremental builds in CI -->
<g id="node17" class="node">
<title>incremental builds in CI</title>
<polygon fill="lightgrey" stroke="black" points="899,-180 750,-180 750,-144 899,-144 899,-180"/>
<text text-anchor="middle" x="824.5" y="-158.3" font-family="Times,serif" font-size="14.00">incremental builds in CI</text>
</g>
<!-- Typescript&#45;&gt;incremental builds in CI -->
<g id="edge14" class="edge">
<title>Typescript&#45;&gt;incremental builds in CI</title>
<path fill="none" stroke="black" d="M774.06,-215.7C782.18,-207.22 792.09,-196.86 800.97,-187.58"/>
<polygon fill="black" stroke="black" points="803.74,-189.75 808.13,-180.1 798.69,-184.91 803.74,-189.75"/>
</g>
</g>
</svg>
