<?xml version="1.0" encoding="UTF-8" standalone="no"?>
<!DOCTYPE svg PUBLIC "-//W3C//DTD SVG 1.1//EN"
 "http://www.w3.org/Graphics/SVG/1.1/DTD/svg11.dtd">
<!-- Generated by graphviz version 3.0.0 (0)
 -->
<!-- Pages: 1 -->
<svg width="430pt" height="260pt"
 viewBox="0.00 0.00 429.50 260.00" xmlns="http://www.w3.org/2000/svg" xmlns:xlink="http://www.w3.org/1999/xlink">
<g id="graph0" class="graph" transform="scale(1 1) rotate(0) translate(4 256)">
<polygon fill="white" stroke="transparent" points="-4,4 -4,-256 425.5,-256 425.5,4 -4,4"/>
<!-- AWS -->
<g id="node1" class="node">
<title>AWS</title>
<polygon fill="lightgrey" stroke="black" points="156.5,-252 102.5,-252 102.5,-216 156.5,-216 156.5,-252"/>
<text text-anchor="middle" x="129.5" y="-230.3" font-family="Times,serif" font-size="14.00">AWS</text>
</g>
<!-- S3 -->
<g id="node2" class="node">
<title>S3</title>
<polygon fill="lightgrey" stroke="black" points="119.5,-180 65.5,-180 65.5,-144 119.5,-144 119.5,-180"/>
<text text-anchor="middle" x="92.5" y="-158.3" font-family="Times,serif" font-size="14.00">S3</text>
</g>
<!-- AWS&#45;&gt;S3 -->
<g id="edge1" class="edge">
<title>AWS&#45;&gt;S3</title>
<path fill="none" stroke="black" d="M120.35,-215.7C116.1,-207.64 110.94,-197.89 106.23,-188.98"/>
<polygon fill="black" stroke="black" points="109.31,-187.31 101.54,-180.1 103.12,-190.58 109.31,-187.31"/>
</g>
<!-- Fargate -->
<g id="node4" class="node">
<title>Fargate</title>
<polygon fill="lightgrey" stroke="black" points="195,-180 138,-180 138,-144 195,-144 195,-180"/>
<text text-anchor="middle" x="166.5" y="-158.3" font-family="Times,serif" font-size="14.00">Fargate</text>
</g>
<!-- AWS&#45;&gt;Fargate -->
<g id="edge3" class="edge">
<title>AWS&#45;&gt;Fargate</title>
<path fill="none" stroke="black" d="M138.65,-215.7C142.9,-207.64 148.06,-197.89 152.77,-188.98"/>
<polygon fill="black" stroke="black" points="155.88,-190.58 157.46,-180.1 149.69,-187.31 155.88,-190.58"/>
</g>
<!-- gzip prod client assets -->
<g id="node3" class="node">
<title>gzip prod client assets</title>
<polygon fill="lightgrey" stroke="black" points="161,-108 24,-108 24,-72 161,-72 161,-108"/>
<text text-anchor="middle" x="92.5" y="-86.3" font-family="Times,serif" font-size="14.00">gzip prod client assets</text>
</g>
<!-- S3&#45;&gt;gzip prod client assets -->
<g id="edge2" class="edge">
<title>S3&#45;&gt;gzip prod client assets</title>
<path fill="none" stroke="black" d="M92.5,-143.7C92.5,-135.98 92.5,-126.71 92.5,-118.11"/>
<polygon fill="black" stroke="black" points="96,-118.1 92.5,-108.1 89,-118.1 96,-118.1"/>
</g>
<!-- vite&#45;plugin&#45;compression (gzip) -->
<g id="node8" class="node">
<title>vite&#45;plugin&#45;compression (gzip)</title>
<g id="a_node8"><a xlink:href="http://github.com/vbenjs/vite-plugin-compression" xlink:title="vite&#45;plugin&#45;compression (gzip)">
<polygon fill="lightgrey" stroke="black" points="185,-36 0,-36 0,0 185,0 185,-36"/>
<text text-anchor="middle" x="92.5" y="-14.3" font-family="Times,serif" font-size="14.00">vite&#45;plugin&#45;compression (gzip)</text>
</a>
</g>
</g>
<!-- gzip prod client assets&#45;&gt;vite&#45;plugin&#45;compression (gzip) -->
<g id="edge7" class="edge">
<title>gzip prod client assets&#45;&gt;vite&#45;plugin&#45;compression (gzip)</title>
<path fill="none" stroke="black" d="M92.5,-71.7C92.5,-63.98 92.5,-54.71 92.5,-46.11"/>
<polygon fill="black" stroke="black" points="96,-46.1 92.5,-36.1 89,-46.1 96,-46.1"/>
</g>
<!-- JS -->
<g id="node5" class="node">
<title>JS</title>
<polygon fill="lightgrey" stroke="black" points="308.5,-252 254.5,-252 254.5,-216 308.5,-216 308.5,-252"/>
<text text-anchor="middle" x="281.5" y="-230.3" font-family="Times,serif" font-size="14.00">JS</text>
</g>
<!-- JS Tooling -->
<g id="node6" class="node">
<title>JS Tooling</title>
<polygon fill="lightgrey" stroke="black" points="318.5,-180 244.5,-180 244.5,-144 318.5,-144 318.5,-180"/>
<text text-anchor="middle" x="281.5" y="-158.3" font-family="Times,serif" font-size="14.00">JS Tooling</text>
</g>
<!-- JS&#45;&gt;JS Tooling -->
<g id="edge4" class="edge">
<title>JS&#45;&gt;JS Tooling</title>
<path fill="none" stroke="black" d="M281.5,-215.7C281.5,-207.98 281.5,-198.71 281.5,-190.11"/>
<polygon fill="black" stroke="black" points="285,-190.1 281.5,-180.1 278,-190.1 285,-190.1"/>
</g>
<!-- Vite -->
<g id="node7" class="node">
<title>Vite</title>
<polygon fill="lightgrey" stroke="black" points="308.5,-108 254.5,-108 254.5,-72 308.5,-72 308.5,-108"/>
<text text-anchor="middle" x="281.5" y="-86.3" font-family="Times,serif" font-size="14.00">Vite</text>
</g>
<!-- JS Tooling&#45;&gt;Vite -->
<g id="edge5" class="edge">
<title>JS Tooling&#45;&gt;Vite</title>
<path fill="none" stroke="black" d="M281.5,-143.7C281.5,-135.98 281.5,-126.71 281.5,-118.11"/>
<polygon fill="black" stroke="black" points="285,-118.1 281.5,-108.1 278,-118.1 285,-118.1"/>
</g>
<!-- Vite&#45;&gt;vite&#45;plugin&#45;compression (gzip) -->
<g id="edge6" class="edge">
<title>Vite&#45;&gt;vite&#45;plugin&#45;compression (gzip)</title>
<path fill="none" stroke="black" d="M254.42,-78.97C226.8,-68.74 183.16,-52.58 148.14,-39.61"/>
<polygon fill="black" stroke="black" points="149.1,-36.23 138.51,-36.04 146.67,-42.8 149.1,-36.23"/>
</g>
<!-- Experiment with creating vite plugin -->
<g id="node9" class="node">
<title>Experiment with creating vite plugin</title>
<polygon fill="lightgrey" stroke="black" points="421.5,-36 203.5,-36 203.5,0 421.5,0 421.5,-36"/>
<text text-anchor="middle" x="312.5" y="-14.3" font-family="Times,serif" font-size="14.00">Experiment with creating vite plugin</text>
</g>
<!-- Vite&#45;&gt;Experiment with creating vite plugin -->
<g id="edge8" class="edge">
<title>Vite&#45;&gt;Experiment with creating vite plugin</title>
<path fill="none" stroke="black" d="M289.16,-71.7C292.69,-63.73 296.96,-54.1 300.87,-45.26"/>
<polygon fill="black" stroke="black" points="304.08,-46.67 304.93,-36.1 297.68,-43.83 304.08,-46.67"/>
</g>
</g>
</svg>
